<svg xmlns="http://www.w3.org/2000/svg" height="1200" width="1600" version="1.1" xmlns:xlink="http://www.w3.org/1999/xlink" xmlns:svgjs="http://svgjs.com/svgjs"><rect fill="#f3f3f3" width="1600" height="1200"></rect><g><path d="M425.08 118.55V240.17" stroke="#13222f" stroke-width="4" stroke-linecap="round" stroke-linejoin="round" opacity="1" fill="none"></path><path d="M446.82 336.1C453.08 324.15 448.47 309.39 436.52 303.13 424.57 296.86 409.81 301.48 403.55 313.43 397.28 325.38 401.9 340.14 413.85 346.41 425.79 352.66 440.56 348.05 446.82 336.1Z" fill="#ffffff" opacity="1" stroke-width="4" stroke="none"></path><path d="M482.61 294.9L467.04 286.39C456.23 280.51 448.57 270.3 445.93 258.3L443.55 247.49C441.34 237.36 431.29 230.9 421.16 233.19 414.02 234.81 408.4 240.34 406.87 247.49L404.48 258.3C401.84 270.3 394.1 280.51 383.38 286.39L367.8 294.9C356.4 301.11 348.65 312.35 347.03 325.2H503.55C501.76 312.35 494.02 301.11 482.61 294.9Z" fill="#257bcb" opacity="1" stroke-width="4" stroke="none"></path><path d="M359.38 300.86H490.59" stroke="#13222f" stroke-width="4" stroke-linecap="round" stroke-linejoin="round" opacity="1" fill="none"></path><path d="M421.08 233.11C413.93 234.73 408.31 240.26 406.78 247.41L404.4 258.22C401.76 270.22 394.01 280.43 383.29 286.3L367.72 294.81C356.31 301.03 348.57 312.26 346.95 325.11H391.97C391.97 295.58 425.68 294.05 425.68 267.32 425.68 248.51 425.25 232.6 425.25 232.6 423.8 232.68 422.44 232.85 421.08 233.11Z" fill="#13222f" opacity="0.3" stroke-width="4" stroke="none"></path></g><g><path d="M887.95 696.53H749.84V767.25H887.95V696.53Z" fill="#2c445b" opacity="1" stroke-width="4" stroke="none"></path><path d="M887.95 766.41H749.84V837.13H887.95V766.41Z" fill="#2c445b" opacity="1" stroke-width="4" stroke="none"></path><path d="M749.84 696.53H887.95V739.04L749.84 702.27V696.53Z" fill="#ffffff" opacity="0.2" stroke-width="4" stroke="none"></path><path d="M749.84 766.41H887.95V808.93L749.84 772.15V766.41Z" fill="#ffffff" opacity="0.2" stroke-width="4" stroke="none"></path><path d="M802.42 766.41H835.45C835.45 775.48 828.04 782.89 818.98 782.89 809.82 782.97 802.42 775.57 802.42 766.41Z" fill="#1f1f1f" opacity="1" stroke-width="4" stroke="none"></path><path d="M802.42 696.53H835.45C835.45 705.6 828.04 713 818.98 713 809.82 713 802.42 705.68 802.42 696.53Z" fill="#1f1f1f" opacity="1" stroke-width="4" stroke="none"></path><path d="M496.25 570.07H924.47C962.66 570.07 993.61 601.02 993.61 639.29V682.47H427.03V639.29C427.03 601.02 457.98 570.07 496.25 570.07Z" fill="#ffffff" opacity="1" stroke-width="4" stroke="none"></path><path d="M993.61 693.62H887.45V1014.76H993.61V693.62Z" fill="#ffffff" opacity="1" stroke-width="4" stroke="none"></path><path d="M887.45 693.62H989.37C991.45 693.62 992.94 695.7 992.28 697.69L887.7 1014.01C887.61 1014.18 887.45 1014.09 887.45 1014.01V693.62Z" fill="#ababab" opacity="0.2" stroke-width="4" stroke="none"></path><path d="M533.19 693.62H427.03V1014.76H533.19V693.62Z" fill="#ffffff" opacity="1" stroke-width="4" stroke="none"></path><path d="M993.61 678.22H427.03V696.53H993.61V678.22Z" fill="#2c445b" opacity="1" stroke-width="4" stroke="none"></path><path d="M749.84 766.41L887.12 766.25" stroke="#000000" stroke-width="4" stroke-linecap="round" stroke-linejoin="round" opacity="1" fill="none"></path><path d="M427.03 696.53L993.61 696.36" stroke="#000000" stroke-width="4" stroke-linecap="round" stroke-linejoin="round" opacity="1" fill="none"></path></g><g><path d="M780.83 678.43L766.08 594.53 673.84 594.51 685.83 662.51C686.6 666.99 688.93 671.04 692.39 673.97 695.88 676.89 700.28 678.46 704.82 678.43H780.83Z" fill="#329cff" opacity="1" stroke-width="4" stroke="none"></path><path d="M772.47 631.25L765.98 594.53 673.75 594.51 684.42 655.2 772.47 631.25Z" fill="#09141d" opacity="0.3" stroke-width="4" stroke="none"></path><path d="M860.91 626.16C865.55 626.29 870.15 625.39 874.39 623.52 878.62 621.65 882.4 618.84 885.43 615.34 888.43 611.64 890.58 607.31 891.7 602.67 892.81 598.03 892.89 593.19 891.92 588.52L861.15 414.1C857.49 393.34 837.63 376.48 816.9 376.48H552.29C547.65 376.35 543.05 377.25 538.82 379.12 534.58 380.99 530.81 383.77 527.78 387.29 524.77 391 522.63 395.32 521.51 399.96 520.39 404.6 520.32 409.42 521.29 414.1L552.05 588.54C555.74 609.29 575.59 626.16 596.31 626.16H860.91Z" fill="#329cff" opacity="1" stroke-width="4" stroke="none"></path><path d="M864.89 553.1L840.77 416.33C839.74 411.22 837.01 406.58 833.03 403.21 829.05 399.81 824.05 397.87 818.84 397.67L557.79 397.67C555.48 397.6 553.19 398.05 551.08 398.99 548.97 399.92 547.1 401.32 545.6 403.06 544.1 404.89 543.05 407.04 542.48 409.35 541.93 411.64 541.9 414.02 542.37 416.35L566.54 553.1H864.89Z" fill="#e5eff7" opacity="1" stroke-width="4" stroke="none"></path><path d="M724.94 605C726.88 605.07 728.82 604.71 730.62 603.92 732.4 603.15 733.99 601.98 735.28 600.51 736.54 599.04 737.48 597.3 737.99 595.41 738.52 593.52 738.59 591.56 738.25 589.64 737.51 585.07 735.2 580.91 731.74 577.85 728.27 574.79 723.85 573.03 719.22 572.86 717.35 572.83 715.48 573.17 713.73 573.89 711.99 574.62 710.43 575.7 709.13 577.08 703.65 583.06 705.01 593.23 712.16 599.78 715.62 603.02 720.17 604.89 724.94 605V605Z" fill="#09141d" opacity="1" stroke-width="4" stroke="none"></path><path d="M771.87 626.29H679.65" stroke="#09141d" stroke-width="4" stroke-linecap="round" stroke-linejoin="round" opacity="1" fill="none"></path><path d="M778.08 663.36H685.87" stroke="#09141d" stroke-width="4" stroke-linecap="round" stroke-linejoin="round" opacity="1" fill="none"></path><path d="M812.92 678.43L812.75 677.67C812.02 673.53 809.84 669.77 806.61 667.08 803.38 664.36 799.31 662.88 795.1 662.88H685.87C686.64 667.24 688.91 671.18 692.3 674.03 695.69 676.87 699.98 678.43 704.4 678.43H812.92Z" fill="#329cff" opacity="1" stroke-width="4" stroke="none"></path></g><g><path d="M1214.55 472.37C1245.61 472.37 1270.8 447.19 1270.8 416.13 1270.8 385.07 1245.61 359.89 1214.55 359.89 1183.49 359.89 1158.31 385.07 1158.31 416.13 1158.31 447.19 1183.49 472.37 1214.55 472.37Z" fill="#a0a0a0" opacity="1" stroke-width="4" stroke="none"></path><path d="M1211.51 444.8C1210.33 444.8 1209.2 444.36 1208.38 443.5L1188.78 423.9C1187.04 422.16 1187.04 419.35 1188.78 417.64 1190.52 415.92 1193.33 415.89 1195.05 417.64L1211.06 433.66 1233.67 404.43C1235.18 402.48 1237.96 402.12 1239.88 403.63 1241.83 405.14 1242.19 407.91 1240.68 409.83L1214.97 443.05C1214.2 444.06 1213.02 444.68 1211.74 444.77 1211.69 444.77 1211.6 444.8 1211.51 444.8Z" fill="#010101" opacity="0.2" stroke-width="4" stroke="none"></path><path d="M1211.51 437.17C1210.33 437.17 1209.2 436.73 1208.38 435.87L1188.78 416.28C1187.04 414.53 1187.04 411.73 1188.78 410.01 1190.52 408.3 1193.33 408.27 1195.05 410.01L1211.06 426.03 1233.67 396.8C1235.18 394.85 1237.96 394.5 1239.88 396 1241.83 397.51 1242.19 400.29 1240.68 402.21L1214.97 435.43C1214.2 436.43 1213.02 437.06 1211.74 437.14 1211.69 437.14 1211.6 437.17 1211.51 437.17Z" fill="#ffffff" opacity="1" stroke-width="4" stroke="none"></path></g><g><path d="M793.39 517.86C792.53 517.85 791.6 517.59 790.72 517.1L751.43 494.44 744.47 459.86 774.06 437.71C774.64 437.21 775.49 437.02 776.44 437.17 776.98 437.26 777.54 437.45 778.07 437.73 778.61 438.01 779.12 438.37 779.57 438.79 780.02 439.21 780.41 439.69 780.71 440.19 781 440.69 781.21 441.21 781.31 441.72L781.32 441.8 795.93 514.65C796.04 515.24 796.02 515.8 795.86 516.29 795.7 516.78 795.39 517.18 794.96 517.45 794.53 517.73 793.99 517.87 793.39 517.86V517.86Z" fill="#f3f3f3" opacity="1" stroke-width="4" stroke="none"></path><path d="M661.5 527.5C658.15 527.59 654.55 526.93 650.94 525.56 647.34 524.19 643.83 522.16 640.66 519.59 637.46 516.89 634.72 513.74 632.63 510.36 630.55 506.98 629.17 503.47 628.6 500.07L613.93 426.67 702.59 426.64C705.96 426.54 709.59 427.21 713.22 428.58 716.85 429.96 720.38 432.01 723.57 434.6 726.77 437.32 729.51 440.49 731.58 443.89 733.65 447.28 735 450.81 735.54 454.21L736.26 457.58 744.11 496.71 750.3 527.5 661.5 527.5Z" fill="#f3f3f3" opacity="1" stroke-width="4" stroke="none"></path></g><g><path d="M1045.13 645.56C1044.16 641.78 1043.44 638.01 1042.88 634.23 1058.7 603.63 1064.97 564.75 1061.6 521.77 1059.27 501.04 1048.1 489.64 1034.12 483.45 1022.96 478.55 1009.94 477.02 998.14 476.78 998.22 475.02 998.38 470.84 998.38 468.03L935.72 467.71 937.73 481.76C922.62 486.5 910.57 486.74 904.23 490.6 900.53 492.77 898.2 494.7 896.76 496.22 877.88 513.49 869.77 602.82 869.69 603.71 869.52 603.95 860.21 613.59 848.72 625.56 838.12 636.64 824.14 665.72 824.14 665.72L844.22 680.98C821.81 688.54 799.56 696.65 786.62 703.16 752.96 719.94 747.74 752 743.57 777.78 743.08 780.35 742.68 782.92 742.2 785.41 740.11 797.22 737.38 819.64 734.73 842.85 730.31 882.13 742.04 913.62 741.96 914.27L926.4 917.4C926.4 917.4 931.86 879.56 928.33 860.85 927.85 858.28 927.2 855.38 926.72 852.89 919.41 817.95 909.77 792.89 908.49 789.59 908.41 789.43 908.57 789.27 908.73 789.27H943.59 993.72C1030.03 789.27 1050.67 761.32 1055.81 746.86 1062 728.3 1063.28 704.76 1046.49 650.46 1046.01 648.77 1045.53 647.16 1045.13 645.56Z" fill="#f3f3f3" opacity="1" stroke-width="4" stroke="none"></path><path d="M751.28 1014.6H685.17C684.76 1014.6 684.44 1014.28 684.44 1013.88 685.41 985.92 716.33 985.76 722.84 951.22 724.29 944.15 725.97 926.48 726.05 924.79 726.05 924.71 726.13 924.71 726.13 924.71 728.78 924.47 772.32 917.4 772.32 917.4 772.32 917.4 819 924.15 820.68 924.15 819.96 939.73 817.95 957.89 815.22 972.51 814.5 972.75 778.83 985.28 777.14 985.92 777.14 985.92 777.06 985.92 777.06 986 776.1 987.21 758.43 1008.09 753.93 1013.47 753.29 1014.12 752.32 1014.6 751.28 1014.6Z" fill="#2c445b" opacity="1" stroke-width="4" stroke="none"></path><path d="M777.14 985.92C777.14 985.84 777.14 985.84 777.14 985.92 792.81 972.91 813.61 972.43 815.22 972.43 815.3 972.43 815.3 972.43 815.3 972.43 811.53 993.47 808.07 1005.2 805.66 1014.68 804.86 1014.68 788.87 1014.68 783.89 1014.68 783.01 1014.68 782.29 1014.04 782.12 1013.23L777.14 985.92Z" fill="#257bcb" opacity="1" stroke-width="4" stroke="none"></path><path d="M800.2 1013.88C802.61 976.92 847.59 989.3 843.58 924.71 844.54 924.87 887.84 911.37 887.84 911.37 887.84 911.37 933.07 924.55 934.91 925.11 935.24 940.94 934.43 958.69 932.67 973.71 931.86 973.95 894.11 985.44 892.98 985.76 890.97 988.01 872.5 1010.1 869.04 1014.2 868.8 1014.52 868.4 1014.68 868 1014.68 861.41 1014.68 808.31 1014.68 801.08 1014.68 800.52 1014.68 800.12 1014.28 800.2 1013.88Z" fill="#2c445b" opacity="1" stroke-width="4" stroke="none"></path><path d="M892.98 985.76C908.16 974.03 932.58 973.79 932.58 973.79 930.98 986.97 928.73 1000.7 925.68 1013.88 925.52 1014.36 925.11 1014.76 924.55 1014.76H899.17C898.6 1014.76 898.12 1014.36 897.96 1013.8L892.9 985.92C892.9 985.76 892.9 985.76 892.98 985.76Z" fill="#257bcb" opacity="1" stroke-width="4" stroke="none"></path><path d="M847.19 683.23L820.6 655.04C829.76 645.48 838.2 636.56 848.72 625.56 852.58 629.17 854.74 634.07 855.15 639.29 855.15 639.53 855.47 639.77 855.71 639.61 871.53 632.79 894.43 633.91 897.88 667.81 897.8 667.81 847.19 683.23 847.19 683.23Z" fill="#76abdd" opacity="1" stroke-width="4" stroke="none"></path><path d="M935.56 468.03L936.04 470.44C936.04 468.59 934.11 467.06 932.26 467.46 927.93 468.43 924.39 470.52 913.47 465.94 913.47 465.94 913.47 465.94 913.39 465.94 909.77 465.94 906.48 464.25 903.51 462.48 892.42 455.66 893.87 439.91 896.6 425.77 896.68 425.37 896.52 424.97 896.28 424.73 894.83 423.44 890.49 419.19 890.65 416.05 890.81 413.32 896.19 411.07 898.2 410.35 898.69 410.19 898.93 409.79 899.01 409.3 899.49 399.66 899.49 389.7 901.5 381.03 906.88 371.31 911.7 367.29 920.13 362.23 935.8 351.63 962.63 347.05 979.42 356.77 998.05 367.13 998.3 395.01 998.3 406.89 998.38 412.84 997.97 446.58 997.73 468.11 997.73 468.03 935.4 468.27 935.56 468.03Z" fill="#ae805a" opacity="1" stroke-width="4" stroke="none"></path><path d="M908.49 789.19H943.03C943.19 789.19 943.19 789.03 943.11 788.95 940.54 787.26 925.92 777.86 910.65 769.03 905.19 765.89 901.66 765.41 900.05 765.41 899.57 765.41 899.33 765.89 899.49 766.3L908.16 788.95C908.24 789.11 908.41 789.19 908.49 789.19Z" fill="#3b3b3b" opacity="0.2" stroke-width="4" stroke="none"></path><path d="M912.26 406.17C915.72 406.25 915.72 411.39 912.26 411.47 908.81 411.39 908.81 406.25 912.26 406.17Z" fill="#231f20" opacity="1" stroke-width="4" stroke="none"></path><path d="M901.5 381.03C903.59 370.99 908.81 364.08 915.8 359.34 930.01 355.4 938.21 354.28 951.22 353.88 962.15 353.88 971.38 355.32 976.85 360.86 976.61 360.62 960.06 397.74 937.32 396.13 912.98 394.36 901.5 381.11 901.5 381.03Z" fill="#2c445b" opacity="1" stroke-width="4" stroke="none"></path><path d="M770.4 714.08C763.97 701.95 810.48 664.36 820.6 655.04 821.17 655.52 850.57 678.49 850.41 678.41 850.25 678.49 841.81 681.95 842.13 681.79 842.21 681.87 836.75 689.82 830.64 696.73 824.54 703.72 812.49 716.57 806.55 709.18 804.94 705.89 807.43 699.78 809.28 696.01 810 694.16 811.77 692.31 810.56 693.03 796.83 699.14 783.25 706.13 770.4 714.08Z" fill="#ae805a" opacity="1" stroke-width="4" stroke="none"></path><path d="M845.75 729.91C838.84 725.81 844.3 706.21 844.38 706.05 844.62 705.65 828.72 728.22 821.97 720.11 819.32 715.13 831.05 693.92 831.13 693.68 845.35 666.93 862.46 646.6 893.78 634.31 895.31 633.75 898.44 634.95 898.44 634.95L914.35 678.41C908.16 684.44 901.18 689.58 893.7 693.68 893.62 694 887.52 724.44 875.79 726.29 874.02 726.53 872.26 726.21 870.65 725.33 870.65 725.33 867.84 729.91 863.9 730.55 860.93 730.95 858.6 729.34 856.27 725.97 855.71 727.01 850.25 733.04 845.75 729.91Z" fill="#ae805a" opacity="1" stroke-width="4" stroke="none"></path><path d="M1042.88 634.31C1039.67 640.42 1035.89 646.6 1031.95 651.98 1028.58 655.6 1020.07 661.62 1020.07 661.62 1007.29 669.98 957.09 693.44 931.3 704.12L936.92 720.27C937.08 720.67 937.57 720.91 937.97 720.75 1021.43 688.21 1039.26 663.31 1045.21 645.64 1044.16 641.78 1043.44 638.01 1042.88 634.31Z" fill="#3b3b3b" opacity="0.2" stroke-width="4" stroke="none"></path><path d="M923.03 623.55C918.13 603.22 912.18 578.88 911.46 575.91 911.46 575.75 911.22 575.67 911.14 575.75 903.59 581.05 907.44 609.49 901.42 631.18 903.42 636.8 911.14 637.85 914.27 637.12 917.24 636.48 924.63 631.74 923.03 623.55Z" fill="#3b3b3b" opacity="0.2" stroke-width="4" stroke="none"></path><path d="M1020.07 661.54C1010.18 646.52 991.15 643.15 977.57 643.15 969.62 643.15 962.79 644.19 959.42 644.92 958.53 645.08 957.81 644.19 958.13 643.39 961.26 635.44 961.91 623.31 956.84 614.23 956.76 614.07 956.6 614.07 956.52 614.07 944.23 617.12 933.39 620.25 923.03 623.55 918.04 625.15 913.23 626.84 908.41 628.53 906.16 629.33 903.83 630.22 901.5 631.18 898.77 632.22 896.11 633.35 893.78 634.31L896.68 642.91 903.26 662.67 918.37 707.98C918.53 708.54 919.09 708.78 919.65 708.62 922.38 707.73 926.4 706.13 931.3 704.12 957.09 693.44 1007.29 669.98 1020.07 661.54 1020.07 661.62 1020.07 661.62 1020.07 661.54Z" fill="#76abdd" opacity="1" stroke-width="4" stroke="none"></path><path d="M934.83 925.11C933.71 925.11 729.67 924.71 726.13 924.71 726.13 924.71 726.13 924.71 726.13 924.63 726.29 922.94 730.15 878.76 734.65 842.69 739.87 839.88 745.41 838.51 751.04 838.51 772.73 837.31 796.42 865.02 803.97 877.63 804.38 878.28 805.34 878.36 805.82 877.72 811.61 869.36 818.35 865.1 825.99 865.1 838.6 864.3 854.5 880.21 861.65 889.6 862.38 890.49 863.74 889.93 863.58 888.8 861.57 874.02 859.08 832.17 886.47 832.25 899.09 832.25 914.43 842.61 928.25 860.68 932.18 881.89 934.59 903.58 934.83 925.11Z" fill="#76abdd" opacity="1" stroke-width="4" stroke="none"></path><path d="M952.51 529.8C930.74 529.8 912.26 514.86 904.23 490.76 904.23 490.68 904.23 490.68 904.23 490.6 904.71 490.28 907.68 488.35 909.37 487.47 914.11 484.98 918.85 482.97 919.97 482.49 920.05 482.41 920.13 482.33 919.97 482.25 915.23 476.94 913.23 466.82 913.31 465.94 913.31 465.94 913.31 465.86 913.39 465.86 922.7 465.7 931.14 465.54 934.03 464.33 934.43 464.17 934.75 463.85 934.91 463.37 942.47 444.09 936.6 421.43 930.34 402.88 924.71 386.57 916.04 359.98 915.64 359.26 924.63 353.47 937.57 350.02 950.82 350.02 989.46 350.18 998.94 372.75 1001.99 406.17 1005.45 442.64 1036.37 449.31 1035.57 474.29 1035.41 478.79 1034.04 483.37 1033.96 483.53 1027.78 481.28 1021.83 479.59 1015.57 478.39 1001.51 510.6 977.81 529.8 952.51 529.8Z" fill="#257bcb" opacity="1" stroke-width="4" stroke="none"></path><path d="M953.07 505.86C941.98 505.86 921.66 503.69 909.53 487.71 909.45 487.63 909.53 487.55 909.61 487.55 914.27 485.14 918.93 483.13 920.05 482.65 920.21 482.57 920.37 482.65 920.45 482.73 924.63 487.31 934.75 494.21 952.11 495.26 957.41 495.98 966.81 496.06 974.36 496.54 991.23 497.59 968.49 506.42 953.07 505.86Z" fill="#000000" opacity="0.2" stroke-width="4" stroke="none"></path><path d="M1034.12 483.53C1028.26 481.28 1019.5 479.03 1015.73 478.39 1017.74 473.33 1019.18 467.71 1019.99 462.4 1019.99 462.32 1020.07 462.24 1020.15 462.24 1021.99 461.92 1022.8 463.93 1023.92 466.42 1025.61 470.12 1027.62 474.61 1033.48 474.61 1034.28 474.61 1034.77 474.45 1035.57 474.29 1035.57 474.29 1035.65 474.29 1035.65 474.37 1035.49 478.47 1035.01 480.4 1034.12 483.53Z" fill="#000000" opacity="0.2" stroke-width="4" stroke="none"></path><path d="M852.09 962.71L839.96 957.81" stroke="#8ca4bb" stroke-width="4" stroke-linecap="round" stroke-linejoin="round" opacity="1" fill="none"></path><path d="M845.59 975.64L834.34 968.73" stroke="#8ca4bb" stroke-width="4" stroke-linecap="round" stroke-linejoin="round" opacity="1" fill="none"></path><path d="M733.2 962.71L721.72 958.05" stroke="#8ca4bb" stroke-width="4" stroke-linecap="round" stroke-linejoin="round" opacity="1" fill="none"></path><path d="M726.86 975.64L715.85 969.37" stroke="#8ca4bb" stroke-width="4" stroke-linecap="round" stroke-linejoin="round" opacity="1" fill="none"></path><path d="M914.83 428.5C913.23 431.72 910.57 432.52 906.24 432.52" stroke="#151413" stroke-width="4" stroke-linecap="round" stroke-linejoin="round" opacity="1" fill="none"></path><path d="M922.86 623.07L911.54 575.75" stroke="#3b3b3b" stroke-width="4" stroke-linecap="round" stroke-linejoin="round" opacity="1" fill="none"></path><path d="M899.25 765.49L908.24 789.27" stroke="#3b3b3b" stroke-width="4" stroke-linecap="round" stroke-linejoin="round" opacity="1" fill="none"></path><path d="M844.3 706.37C845.75 699.38 847.67 690.62 850.41 682.43" stroke="#151413" stroke-width="4" stroke-linecap="round" stroke-linejoin="round" opacity="1" fill="none"></path><path d="M864.38 684.52C860.05 699.62 857.64 715.77 856.51 725.81" stroke="#151413" stroke-width="4" stroke-linecap="round" stroke-linejoin="round" opacity="1" fill="none"></path><path d="M879.89 686.93C876.67 698.98 872.18 714.64 870.65 725.33" stroke="#151413" stroke-width="4" stroke-linecap="round" stroke-linejoin="round" opacity="1" fill="none"></path><path d="M843.66 673.11C839.08 679.78 834.82 686.61 830.97 693.68 830.97 693.68 829.92 695.2 827.67 700.02" stroke="#151413" stroke-width="4" stroke-linecap="round" stroke-linejoin="round" opacity="1" fill="none"></path><path d="M815.94 685.72L811.12 692.87" stroke="#151413" stroke-width="4" stroke-linecap="round" stroke-linejoin="round" opacity="1" fill="none"></path><path d="M956.76 613.99C967.69 611.18 975.48 609.81 976.28 609.49L987.37 570.45" stroke="#3b3b3b" stroke-width="4" stroke-linecap="round" stroke-linejoin="round" opacity="1" fill="none"></path><path d="M1042.88 634.31C1039.99 640.26 1035.97 646.44 1031.71 651.5 1028.98 654.64 1025.21 658.49 1020.07 661.62" stroke="#3b3b3b" stroke-width="4" stroke-linecap="round" stroke-linejoin="round" opacity="1" fill="none"></path><path d="M952.11 495.18C928.65 493.41 919.97 482.16 919.97 482.16" stroke="#000000" stroke-width="4" stroke-linecap="round" stroke-linejoin="round" opacity="1" fill="none"></path><path d="M1015.73 478.39C1017.41 474.69 1019.5 465.46 1020.07 462.4" stroke="#000000" stroke-width="4" stroke-linecap="round" stroke-linejoin="round" opacity="1" fill="none"></path><path d="M935.08 463.45C935.88 461.2 936.76 458.15 937.65 453.89" stroke="#000000" stroke-width="4" stroke-linecap="round" stroke-linejoin="round" opacity="1" fill="none"></path></g><g><path d="M1066.17 814.2L1114.37 1013.09" stroke="#1f1f1f" stroke-width="4" stroke-linecap="round" stroke-linejoin="round" opacity="1" fill="none"></path><path d="M972.51 814.2L924.32 1013.09" stroke="#1f1f1f" stroke-width="4" stroke-linecap="round" stroke-linejoin="round" opacity="1" fill="none"></path><path d="M954.14 890.61H1084.44" stroke="#1f1f1f" stroke-width="4" stroke-linecap="round" stroke-linejoin="round" opacity="1" fill="none"></path><path d="M946.37 788.68H1092.21C1103.03 788.68 1111.74 795.24 1111.74 803.38 1111.74 811.51 1103.03 818.07 1092.21 818.07H946.37C935.55 818.07 926.84 811.51 926.84 803.38 926.84 795.32 935.66 788.68 946.37 788.68Z" fill="#2c445b" opacity="1" stroke-width="4" stroke="none"></path><path d="M927.26 806.22C929.04 812.94 936.92 818.07 946.37 818.07H1092.21C1103.03 818.07 1111.74 811.51 1111.74 803.38 1111.74 800.06 1110.27 797.05 1107.86 794.6 1082.34 800.93 1051.89 805.59 1018.92 807.8 985.43 810.01 954.03 809.3 927.26 806.22Z" fill="#1c1c1c" opacity="0.3" stroke-width="4" stroke="none"></path></g><g><path d="M523.97 555.64L528.59 559.79C528.67 559.79 528.67 559.87 528.67 559.95L532.58 572.16C532.58 572.24 532.58 572.32 532.42 572.32L520.22 572.24C520.22 572.24 510 567.85 509.2 567.45V567.37L517.82 557.63C517.82 557.63 517.9 557.55 517.98 557.55L523.97 555.64Z" fill="#505050" opacity="1" stroke-width="4" stroke="none"></path><path d="M501.7 577.58L494.68 567.13 489.1 566.41 483.51 567.85 477.92 579.18C477.92 579.26 477.92 579.26 478 579.26L489.81 580.93 501.62 577.66C501.78 577.66 501.78 577.66 501.7 577.58Z" fill="#f0f0f0" opacity="1" stroke-width="4" stroke="none"></path><path d="M483.59 623.78L519.98 624.42 536.57 605.11C536.65 605.03 536.57 604.95 536.49 604.95H468.19C468.11 604.95 468.11 605.03 468.11 605.11L483.59 623.78Z" fill="#414141" opacity="1" stroke-width="4" stroke="none"></path><path d="M491.57 652.43L509.2 567.37C509.2 567.29 509.28 567.29 509.28 567.29L532.5 572.08C532.58 572.08 532.58 572.16 532.58 572.16L515.03 657.3 491.57 652.43Z" fill="#76abdd" opacity="1" stroke-width="4" stroke="none"></path><path d="M525.32 549.49L528.75 559.79C528.75 559.87 528.75 559.87 528.67 559.87L518.06 557.63C517.98 557.63 517.98 557.55 517.98 557.47L525.16 549.41C525.16 549.41 525.24 549.41 525.32 549.49Z" fill="#76abdd" opacity="1" stroke-width="4" stroke="none"></path><path d="M478 579.26L501.7 577.66C501.78 577.66 501.78 577.66 501.78 577.74L507.45 664.48 483.59 666 477.92 579.26C477.92 579.26 477.92 579.26 478 579.26Z" fill="#a0a0a0" opacity="1" stroke-width="4" stroke="none"></path><path d="M488.38 557.95L483.59 567.85 494.68 567.13 488.54 557.87C488.54 557.87 488.46 557.87 488.38 557.95Z" fill="#a0a0a0" opacity="1" stroke-width="4" stroke="none"></path><path d="M502.42 616.84C514.79 616.92 526.84 612.77 536.57 605.03 536.65 604.95 536.73 605.03 536.73 605.11L532.03 648.04 524.37 673.82 480.8 673.42 472.74 647.4 468.11 605.11C468.11 605.03 468.19 605.03 468.27 605.03 478 612.77 490.05 616.92 502.42 616.84Z" fill="#f3f3f3" opacity="1" stroke-width="4" stroke="none"></path><path d="M472.74 647.4C489.97 632.88 515.03 633.28 531.95 648.04V648.12L528.67 678.2H476.01L472.74 647.4Z" fill="#808080" opacity="1" stroke-width="4" stroke="none"></path></g><g><path d="M335.31 860.49C330.73 843.43 305.77 838.33 295.5 871.27 286.56 900.01 273.93 904.22 268.17 932.65 262.71 959.83 278.44 999.12 318.76 996.32 361.23 993.36 335.31 860.49 335.31 860.49Z" stroke="#ffffff" stroke-width="4" stroke-linecap="round" stroke-linejoin="round" opacity="1" fill="none"></path><path d="M352.36 787.74L406.91 890.07 311.75 940.8 257.2 838.47 352.36 787.74Z" fill="#257bcb" opacity="1" stroke-width="4" stroke="none"></path><path d="M378.96 801.33H378.66C362.27 801.33 348.97 814.63 348.97 831.02V858.72H408.65V831.02C408.65 814.63 395.36 801.33 378.96 801.33Z" stroke="#ffffff" stroke-width="4" stroke-linecap="round" stroke-linejoin="round" opacity="1" fill="none"></path><path d="M378.89 829.18H378.22C335.68 829.18 301.26 863.67 301.26 906.14V997.8C301.26 1007.62 309.24 1015.6 319.06 1015.6H438.05C447.87 1015.6 455.85 1007.62 455.85 997.8V906.22C455.92 863.67 421.43 829.18 378.89 829.18 378.89 829.18 378.96 829.18 378.89 829.18Z" fill="#329cff" opacity="1" stroke-width="4" stroke="none"></path><path d="M409.39 923.72H347.86C337.89 923.72 329.77 931.85 329.77 941.82V980.59C329.77 990.56 337.89 998.69 347.86 998.69H409.39C419.36 998.69 427.48 990.56 427.48 980.59V941.82C427.48 931.85 419.36 923.72 409.39 923.72Z" fill="#265c8e" opacity="0.3" stroke-width="4" stroke="none"></path><path d="M409.14 927.83H347.86C339.38 927.33 337.39 932.75 329.73 943.83V972.47C329.77 982.44 337.89 990.56 347.86 990.56H409.39C419.36 990.56 427.48 982.44 427.48 972.47V943.49C421.59 929.4 418.75 928.32 409.14 927.33Z" fill="#004e97" opacity="1" stroke-width="4" stroke="none"></path><path d="M409.39 915.6H347.86C337.89 915.6 329.77 923.72 329.77 933.69V943.44H427.48V933.69C427.48 923.72 419.36 915.6 409.39 915.6Z" fill="#257bcb" stroke="#272459" stroke-width="4" opacity="1"></path><path d="M427.48 943.44H329.7" stroke="#fcfcfc" stroke-width="4" stroke-linecap="round" stroke-linejoin="round" opacity="1" fill="none"></path><path d="M378.59 892.26C370.43 892.26 363.82 885.64 363.82 877.49 363.82 869.32 370.43 862.71 378.59 862.71 386.74 862.71 393.36 869.32 393.36 877.49 393.36 885.64 386.74 892.26 378.59 892.26Z" fill="#257bcb" opacity="1" stroke-width="4" stroke="none"></path></g><g><path d="M1283.06 970.05L1270.76 969.91 1278.69 945.32C1276.61 941.5 1274.05 937.93 1271.16 934.71L1262.43 924.9C1256.92 918.65 1255.85 909.52 1259.81 902.19L1267.2 888.35H1202.37 1202.3L1209.76 902.19C1213.66 909.58 1212.58 918.72 1207.01 924.9L1198.27 934.71C1195.32 937.93 1192.76 941.5 1190.61 945.32L1197.47 969.11 1186.85 968.97 1183.02 976.09C1183.36 991.41 1189.47 1005.92 1200.22 1016.87H1269.22C1279.97 1005.99 1286.08 991.55 1286.42 976.23L1283.06 970.05Z" fill="#329cff" opacity="1" stroke-width="4" stroke="none"></path><path d="M1256.9 985.37C1257.73 986.08 1249.4 979.18 1242.42 976.7 1239.86 975.83 1237.18 975.35 1234.49 975.35 1224.28 975.35 1215.14 981.87 1212.02 983.71 1211.08 984.19 1199.22 975.35 1189.01 975.35 1186.99 975.35 1184.98 975.62 1183.03 976.09 1182.76 965.34 1185.45 954.6 1190.69 945.26 1200.36 945.93 1208.15 953.92 1211.78 953.74 1215.03 953.92 1219.58 949.02 1226.56 946.53 1229.12 945.66 1231.8 945.19 1234.49 945.19 1244.7 945.19 1253.91 952.9 1257.26 952.78 1261.32 952.83 1268.89 945.8 1278.7 945.26 1284 954.66 1286.69 965.41 1286.42 976.23 1284.34 975.69 1282.12 975.35 1279.97 975.35 1269.83 975.35 1263.67 978.88 1258.49 983.89Z" fill="#257bcb" opacity="1" stroke-width="4" stroke="none"></path><path d="M1234.69 901.86C1216.62 901.86 1206.18 892.84 1205.11 888.44H1264.47C1264.54 891.47 1252.9 901.86 1234.69 901.86Z" fill="#1e2f3f" opacity="1" stroke-width="4" stroke="none"></path><path d="M1239.53 899.91C1240.87 891.78 1246.85 859.74 1261.97 842.27" stroke="#257bcb" stroke-width="4" stroke-linecap="round" stroke-linejoin="round" opacity="1" fill="none"></path><path d="M1232.54 900.11C1232.47 890.91 1231.47 845.76 1222.53 818.82" stroke="#257bcb" stroke-width="4" stroke-linecap="round" stroke-linejoin="round" opacity="1" fill="none"></path><path d="M1252.42 865.92C1250.74 863.7 1250.27 861.95 1251.01 860.81 1252.22 858.86 1256.65 858.73 1263.51 860.41 1270.36 862.09 1278.76 865.45 1287.22 869.81 1299.18 875.99 1308.99 883.11 1312.95 888.35 1314.63 890.57 1315.1 892.32 1314.36 893.46 1313.15 895.41 1308.72 895.54 1301.87 893.86 1295.01 892.18 1286.62 888.83 1278.15 884.46 1266.19 878.28 1256.38 871.22 1252.42 865.92Z" fill="#257bcb" opacity="1" stroke-width="4" stroke="none"></path><path d="M1147.42 831.45C1146.89 830.85 1146.62 830.18 1146.55 829.57 1146.28 827.56 1148.16 825.81 1151.79 824.67 1155.42 823.46 1160.39 822.99 1165.76 823.32 1174.97 823.86 1183.37 826.55 1186.05 829.97 1186.59 830.58 1186.86 831.25 1186.93 831.86 1187.46 835.95 1178.86 838.77 1167.71 838.17 1158.51 837.57 1150.18 834.88 1147.42 831.45Z" fill="#257bcb" opacity="1" stroke-width="4" stroke="none"></path><path d="M1168.85 881.64C1159.99 883.18 1154.48 882.58 1153.74 879.96 1152.33 875.05 1167.91 864.57 1188.61 856.58 1197.54 853.15 1206.41 850.53 1213.6 849.26 1222.46 847.71 1227.97 848.31 1228.71 850.93 1229.38 853.29 1226.16 857.05 1219.58 861.48 1212.99 865.92 1203.86 870.42 1193.85 874.31 1184.91 877.81 1176.04 880.43 1168.85 881.64Z" fill="#257bcb" opacity="1" stroke-width="4" stroke="none"></path><path d="M1260.34 772.02C1261.87 767.45 1259.05 762.39 1254.04 760.73 1249.04 759.07 1243.75 761.44 1242.24 766.01 1240.72 770.59 1243.54 775.64 1248.54 777.3 1253.54 778.97 1258.82 776.6 1260.34 772.02Z" fill="#257bcb" opacity="1" stroke-width="4" stroke="none"></path><path d="M1223.99 823.13C1237.58 818.39 1245.25 804.92 1241.1 793.04 1236.96 781.17 1222.58 775.38 1208.99 780.13 1195.39 784.87 1187.73 798.34 1191.88 810.22 1196.02 822.09 1210.4 827.88 1223.99 823.13Z" fill="#a0a0a0" opacity="1" stroke-width="4" stroke="none"></path><path d="M1217.62 804.86C1219.65 804.16 1220.79 802.13 1220.17 800.35 1219.55 798.56 1217.39 797.69 1215.36 798.39 1213.33 799.1 1212.19 801.13 1212.81 802.91 1213.44 804.7 1215.59 805.57 1217.62 804.86Z" fill="#2f2f2f" opacity="1" stroke-width="4" stroke="none"></path><path d="M1290.33 844.24C1296.2 834.92 1292.32 821.91 1281.65 815.17 1270.98 808.45 1257.57 810.55 1251.69 819.87 1245.81 829.19 1249.69 842.2 1260.36 848.93 1271.03 855.66 1284.45 853.56 1290.33 844.24Z" fill="#a0a0a0" opacity="1" stroke-width="4" stroke="none"></path><path d="M1274.3 834.13C1275.32 832.53 1274.66 830.3 1272.84 829.15 1271.02 828.01 1268.72 828.38 1267.71 829.97 1266.7 831.57 1267.36 833.8 1269.18 834.95 1271 836.1 1273.29 835.73 1274.3 834.13Z" fill="#2f2f2f" opacity="1" stroke-width="4" stroke="none"></path><path d="M1278.76 945.32C1278.76 945.26 1278.76 945.26 1278.76 945.32 1278.76 945.26 1278.76 945.26 1278.76 945.32 1276.61 941.5 1274.06 938 1271.24 934.71L1262.51 924.9C1256.93 918.65 1255.92 909.58 1259.89 902.19L1267.07 888.43H1248.33L1240.94 902.19C1236.98 909.52 1238.05 918.65 1243.56 924.9L1252.29 934.71C1255.18 937.93 1257.74 941.5 1259.82 945.26 1265.13 954.66 1267.75 965.34 1267.48 976.16 1267.14 991.48 1261.03 1005.99 1250.28 1016.87H1250.55 1269.22L1269.29 1016.81C1280.04 1005.92 1286.15 991.48 1286.49 976.16 1286.76 965.41 1284.07 954.73 1278.76 945.32Z" fill="#1e2f3f" opacity="0.2" stroke-width="4" stroke="none"></path></g></svg>